<svg id="Icon_metro-cross" data-name="Icon metro-cross" xmlns="http://www.w3.org/2000/svg" width="60" height="49.072" viewBox="0 0 60 49.072">
  <path id="Icon_metro-cross-2" data-name="Icon metro-cross" d="M62.024,41.351h0l-18.2-14.887,18.2-14.887h0a1.525,1.525,0,0,0,.428-.547,1.338,1.338,0,0,0-.429-1.621l-8.6-7.032a2.186,2.186,0,0,0-1.982-.351,1.954,1.954,0,0,0-.669.35h0l-18.2,14.887L14.369,2.376h0a1.952,1.952,0,0,0-.669-.35,2.185,2.185,0,0,0-1.982.351l-8.6,7.032A1.338,1.338,0,0,0,2.69,11.03a1.528,1.528,0,0,0,.428.547h0l18.2,14.887L3.119,41.351h0a1.53,1.53,0,0,0-.429.547,1.338,1.338,0,0,0,.429,1.621l8.6,7.032A2.186,2.186,0,0,0,13.7,50.9a1.955,1.955,0,0,0,.669-.35h0l18.2-14.887,18.2,14.887h0a1.954,1.954,0,0,0,.669.35,2.185,2.185,0,0,0,1.982-.351l8.6-7.032a1.338,1.338,0,0,0,.429-1.621,1.527,1.527,0,0,0-.429-.547Z" transform="translate(-2.571 -1.928)"/>
</svg>
